<svg xmlns="http://www.w3.org/2000/svg" version="1.1" xmlns:xlink="http://www.w3.org/1999/xlink" xmlns:svgjs="http://svgjs.dev/svgjs" width="1500" height="1500" viewBox="0 0 1500 1500"><rect width="1500" height="1500" fill="#0a1627"></rect><g transform="matrix(0.6666666666666666,0,0,0.6666666666666666,249.39393939393938,438.5856950067477)"><svg viewBox="0 0 396 247" data-background-color="#0a1627" preserveAspectRatio="xMidYMid meet" height="935" width="1500" xmlns="http://www.w3.org/2000/svg" xmlns:xlink="http://www.w3.org/1999/xlink"><g id="tight-bounds" transform="matrix(1,0,0,1,0.2400000000000091,-0.09999999999999432)"><svg viewBox="0 0 395.52 247.2" height="247.2" width="395.52"><g><svg></svg></g><g><svg viewBox="0 0 395.52 247.2" height="247.2" width="395.52"><g transform="matrix(1,0,0,1,75.54432,96.95290372281198)"><svg viewBox="0 0 244.43135999999998 53.29419255437601" height="53.29419255437601" width="244.43135999999998"><g><svg viewBox="0 0 244.43135999999998 53.29419255437601" height="53.29419255437601" width="244.43135999999998"><g><svg viewBox="0 0 323.7322634257581 70.58443557764573" height="53.29419255437601" width="244.43135999999998"><g><svg viewBox="0 0 244.43135999999998 70.58443557764573" height="70.58443557764573" width="244.43135999999998"><g id="textblocktransform"><svg viewBox="0 0 244.43135999999998 70.58443557764573" height="70.58443557764573" width="244.43135999999998" id="textblock"><g><svg viewBox="0 0 244.43135999999998 39.716858212645704" height="39.716858212645704" width="244.43135999999998"><g transform="matrix(1,0,0,1,0,0)"><svg width="244.43135999999998" viewBox="0.9 -38.96 276.45000000000005 44.92" height="39.716858212645704" data-palette-color="#fe0039"><path d="M0.9-36.18L0.9-37.99 14.4-37.99 14.4-36.18Q10.86-36.01 10.06-35.16L10.06-35.16Q9.4-34.45 9.4-32.25L9.4-32.25 9.4-21.41 30.62-21.41 30.62-32.25Q30.62-34.57 29.86-35.25L29.86-35.25Q28.98-36.04 25.61-36.18L25.61-36.18 25.61-37.99 39.11-37.99 39.11-36.18Q35.64-36.04 34.81-35.16L34.81-35.16Q34.16-34.45 34.16-32.25L34.16-32.25 34.16-5.76Q34.16-3.39 34.91-2.76L34.91-2.76Q35.77-2 39.11-1.81L39.11-1.81 39.11 0 25.61 0 25.61-1.81Q29.17-2.03 29.93-2.83L29.93-2.83Q30.62-3.54 30.62-5.76L30.62-5.76 30.62-18.92 9.4-18.92 9.4-5.76Q9.4-3.05 10.55-2.47L10.55-2.47Q11.47-2 14.4-1.81L14.4-1.81 14.4 0 0.9 0 0.9-1.81Q4.35-2 5.18-2.83L5.18-2.83Q5.86-3.49 5.86-5.76L5.86-5.76 5.86-32.25Q5.86-34.57 5.1-35.25L5.1-35.25Q4.25-36.01 0.9-36.18L0.9-36.18ZM40.7-25.2L40.7-27 53.39-27 53.39-25.2Q50.97-24.93 50.36-24.66L50.36-24.66Q49.39-24.24 49.39-23.58L49.39-23.58Q49.39-22.78 49.9-21.8L49.9-21.8 57.1-7.3 62.99-20.26Q63.6-21.58 63.6-22.46L63.6-22.46Q63.6-24.66 59.89-25.2L59.89-25.2 59.89-27 71.7-27 71.7-25.2Q69.41-25.17 67.92-23.39L67.92-23.39Q66.84-22.09 65.7-19.65L65.7-19.65 57.49-2.29Q55.93 0.98 54.39 2.86L54.39 2.86Q51.83 5.96 48.58 5.96L48.58 5.96Q46.97 5.96 45.63 5.18L45.63 5.18Q43.28 3.83 43.28 1.39L43.28 1.39Q43.28 0.05 44.19-0.85L44.19-0.85Q44.99-1.66 46.16-1.66L46.16-1.66Q47.34-1.66 48.09-0.85L48.09-0.85Q48.85-0.02 48.85 1.25L48.85 1.25Q48.85 2.59 47.51 3.59L47.51 3.59Q49.85 3.59 51.29 2.2L51.29 2.2Q52.59 0.95 53.9-1.61L53.9-1.61 54.95-3.66 46.09-21.51Q44.58-24.58 40.7-25.2L40.7-25.2ZM86.52 5.96L73.14 5.96 73.14 4.15Q76.24 4.1 77.07 3.22L77.07 3.22Q77.85 2.42 77.85 0.2L77.85 0.2 77.85-21.66Q77.85-23.73 76.95-24.39L76.95-24.39Q76.09-25.02 73.38-25.2L73.38-25.2 73.38-27Q78.36-27.08 81.32-28L81.32-28 81.32-23.34Q82.37-25.27 84.42-26.49L84.42-26.49Q86.96-28 89.94-28L89.94-28Q95.41-28 98.85-24.24L98.85-24.24Q102.09-20.73 102.09-15.04L102.09-15.04Q102.09-8.15 98.55-4.66L98.55-4.66Q95.38-1.49 89.62-1.49L89.62-1.49Q86.18-1.49 83.64-3.27L83.64-3.27Q82.25-4.27 81.32-5.79L81.32-5.79 81.32 0.2Q81.32 2.54 82.22 3.3L82.22 3.3Q83.15 4.08 86.52 4.15L86.52 4.15 86.52 5.96ZM89.3-25.51L89.3-25.51Q86.23-25.51 83.78-22.73L83.78-22.73Q81.27-19.9 81.27-15.16L81.27-15.16Q81.27-10.91 82.32-8.54L82.32-8.54Q84.3-3.98 89.55-3.98L89.55-3.98Q94.45-3.98 96.7-8.3L96.7-8.3Q98.12-11.04 98.12-15.11L98.12-15.11Q98.12-18.97 96.36-21.68L96.36-21.68Q94.6-24.34 91.52-25.2L91.52-25.2Q90.42-25.51 89.3-25.51ZM132.73-13.77L111.25-13.77 111.25-13.38Q111.25-9.45 112.81-6.59L112.81-6.59Q115.42-1.81 120.84-1.81L120.84-1.81Q126.85-1.81 130.85-7.96L130.85-7.96 132.44-6.37Q128.19 1 120.52 1L120.52 1Q113.79 1 110.1-4.05L110.1-4.05Q107.34-7.84 107.34-13.4L107.34-13.4Q107.34-19.14 110.42-23.17L110.42-23.17Q114.15-28 120.26-28L120.26-28Q124.53-28 127.7-25.59L127.7-25.59Q131.27-22.9 132.34-18.24L132.34-18.24Q132.73-16.55 132.73-14.77L132.73-14.77 132.73-13.77ZM111.35-16.16L128.53-16.16Q128.34-20.31 126.7-22.46L126.7-22.46Q124.28-25.66 120.31-25.66L120.31-25.66Q116.57-25.66 113.93-22.46L113.93-22.46Q111.83-19.92 111.35-16.16L111.35-16.16ZM149.82 0L136.73 0 136.73-1.81Q139.83-1.88 140.64-2.78L140.64-2.78Q141.37-3.59 141.37-5.81L141.37-5.81 141.37-21.66Q141.37-23.73 140.47-24.39L140.47-24.39Q139.64-25.02 136.88-25.2L136.88-25.2 136.88-27Q140.59-27 144.69-28L144.69-28 144.69-22.34Q146.18-24.76 149.16-26.54L149.16-26.54Q151.58-28 154.34-28L154.34-28Q156.31-28 157.56-27L157.56-27Q158.97-25.85 158.97-23.83L158.97-23.83Q158.97-22.63 158.27-21.85L158.27-21.85Q157.49-21 156.19-21L156.19-21Q155.41-21 154.78-21.41L154.78-21.41Q153.51-22.24 153.51-23.75L153.51-23.75Q153.51-24.54 154.02-25.29L154.02-25.29Q151.77-25.24 149.57-23.66L149.57-23.66Q146.69-21.58 144.86-18.36L144.86-18.36 144.86-5.81Q144.86-3.47 145.72-2.71L145.72-2.71Q146.65-1.86 149.82-1.81L149.82-1.81 149.82 0ZM194.47-38.01L194.47-26.39 192.61-26.39Q190.15-36.25 180.02-36.25L180.02-36.25Q173.03-36.25 169.23-30.42L169.23-30.42Q166.22-25.78 166.22-18.82L166.22-18.82Q166.22-12.94 169.01-8.69L169.01-8.69Q171.35-5.13 175.13-3.44L175.13-3.44Q177.67-2.29 180.55-2.29L180.55-2.29Q190.95-2.29 194.47-13.35L194.47-13.35 196.47-12.5Q194.42-5.59 190.69-2.47L190.69-2.47Q186.58 0.95 179.99 0.95L179.99 0.95Q171.91 0.95 166.86-4.79L166.86-4.79Q162.02-10.25 162.02-18.77L162.02-18.77Q162.02-25.83 165.37-31.05L165.37-31.05Q168.35-35.69 173.25-37.7L173.25-37.7Q176.35-38.96 179.82-38.96L179.82-38.96Q184.9-38.96 189.68-36.28L189.68-36.28Q190.83-35.64 191.47-35.64L191.47-35.64Q192.32-35.64 192.66-38.01L192.66-38.01 194.47-38.01ZM218.93-17.46L221.03-17.55 221.03-18.31Q221.03-21.88 219.47-23.54L219.47-23.54Q218.66-24.39 217.2-24.98L217.2-24.98Q215.46-25.66 213.61-25.66L213.61-25.66Q210.63-25.66 208.7-24.71L208.7-24.71Q207.72-24.24 207.43-23.66L207.43-23.66Q208.82-23.12 208.82-21.24L208.82-21.24Q208.82-20.34 208.33-19.65L208.33-19.65Q207.58-18.6 206.16-18.6L206.16-18.6Q205.04-18.6 204.28-19.46L204.28-19.46Q203.48-20.39 203.48-21.83L203.48-21.83Q203.48-24.19 206.26-25.98L206.26-25.98Q209.38-28 213.75-28L213.75-28Q218.08-28 220.98-26.12L220.98-26.12Q224.47-23.85 224.47-17.26L224.47-17.26 224.47-6.01Q224.47-2.54 226.03-2.54L226.03-2.54Q227.43-2.54 228.62-5.05L228.62-5.05 230.06-3.2Q228.33 0.9 225.33 0.9L225.33 0.9Q221.4 0.9 221.08-4.35L221.08-4.35Q218.03 0.9 210.53 0.9L210.53 0.9Q206.26 0.9 203.84-2.15L203.84-2.15Q202.18-4.27 202.18-7.2L202.18-7.2Q202.18-11.87 206.85-14.5L206.85-14.5Q211.36-17.09 218.93-17.46L218.93-17.46ZM221.03-8.91L221.03-15.04 219.17-14.94Q212.78-14.6 209.34-12.7L209.34-12.7Q206.04-10.89 206.04-7.4L206.04-7.4Q206.04-5.13 207.26-3.78L207.26-3.78Q208.68-2.2 211.48-2.2L211.48-2.2Q214.24-2.2 216.78-3.52L216.78-3.52Q219.47-4.91 220.54-6.98L220.54-6.98Q221.03-7.96 221.03-8.91L221.03-8.91ZM233.19 0.71L233.19-9.79 234.89-9.79Q235.99-5.4 238.83-3.42L238.83-3.42Q241.78-1.34 244.93-1.34L244.93-1.34Q247.88-1.34 249.74-2.78L249.74-2.78Q251.52-4.15 251.52-6.15L251.52-6.15Q251.52-8.33 249.05-9.89L249.05-9.89Q247.57-10.84 244.73-11.84L244.73-11.84 243.34-12.35Q237.26-14.5 235.48-16.28L235.48-16.28Q233.72-18.04 233.72-20.92L233.72-20.92Q233.72-24.02 236.29-26.07L236.29-26.07Q238.68-28 242.93-28L242.93-28Q246.49-28 249.52-25.76L249.52-25.76Q250.06-25.34 250.62-25.34L250.62-25.34Q251.3-25.34 251.52-27L251.52-27 253.18-27 253.18-18.85 251.28-18.85Q250.45-21.8 248.52-23.61L248.52-23.61Q246.32-25.66 243.02-25.66L243.02-25.66Q240.36-25.66 238.9-24.54L238.9-24.54Q237.29-23.29 237.29-21.22L237.29-21.22Q237.29-19.73 238.7-18.6L238.7-18.6Q239.95-17.65 244.17-16.16L244.17-16.16 245.88-15.55Q251.15-13.7 253.21-11.79L253.21-11.79Q255.38-9.77 255.38-6.37L255.38-6.37Q255.38-2.93 252.52-0.95L252.52-0.95Q249.74 1 245.34 1L245.34 1Q241.32 1 238.19-1.1L238.19-1.1 238.07-1.17Q236.92-1.95 236.6-1.95L236.6-1.95Q235.77-1.95 234.89 0.71L234.89 0.71 233.19 0.71ZM263.58-24.61L257.82-24.61 257.82-26.95Q261.77-27.69 263.6-30.27L263.6-30.27Q264.92-32.15 265.31-35.45L265.31-35.45 267.12-35.45 267.12-27 276.2-27 276.2-24.61 267.12-24.61 267.12-7.86Q267.12-4.96 267.85-3.66L267.85-3.66Q268.73-2.2 270.85-2.2L270.85-2.2Q274.13-2.2 276.2-5.3L276.2-5.3 277.35-3.39Q274.49 0.85 269.88 0.85L269.88 0.85Q266.17 0.85 264.58-2.22L264.58-2.22Q263.58-4.17 263.58-7.5L263.58-7.5 263.58-24.61Z" opacity="1" transform="matrix(1,0,0,1,0,0)" fill="#fe0039" class="wordmark-text-0" data-fill-palette-color="primary" id="text-0"></path></svg></g></svg></g><g transform="matrix(1,0,0,1,0,49.093055232054255)"><svg viewBox="0 0 244.43135999999998 21.49138034559149" height="21.49138034559149" width="244.43135999999998"><g transform="matrix(1,0,0,1,0,0)"><svg width="244.43135999999998" viewBox="1.61 -41.5 495.88 43.6" height="21.49138034559149" data-palette-color="#65a0dc"><path d="M1.61-35.35L1.61-39.26 23.44-39.26 23.44-35.35 14.6-35.35 14.6 1.25 10.45 1.25 10.45-35.35 1.61-35.35ZM35.91-28.25L35.4-20.09 35.64-20.09Q36.96-25.07 40.04-27.42L40.04-27.42Q42.06-28.96 44.26-28.96L44.26-28.96Q45.97-28.96 47.41-27.91L47.41-27.91 46.26-23.85Q45.31-24.66 44.02-24.66L44.02-24.66Q41.4-24.66 39.26-21.88L39.26-21.88Q37.35-19.38 36.2-14.89L36.2-14.89 36.2 1.25 32.2 1.25 32.2-28.25 35.91-28.25ZM53.8-9.64L53.8-28.25 57.76-28.25 57.76-10.11Q57.76-1.95 61.27-1.95L61.27-1.95Q62.91-1.95 64.52-3.83L64.52-3.83Q66.3-5.91 67.3-9.45L67.3-9.45 67.3-28.25 71.26-28.25 71.26 1.25 67.45 1.25 67.45-4Q65.08 1.81 60.62 1.81L60.62 1.81Q56.81 1.81 54.88-2.15L54.88-2.15Q53.8-4.32 53.8-9.64L53.8-9.64ZM77.95-2.2L80.19-5.25Q83.22-1.71 87.18-1.71L87.18-1.71Q92.35-1.71 92.35-6.13L92.35-6.13Q92.35-7.74 90.93-9.4L90.93-9.4Q89.79-10.72 88.44-11.45L88.44-11.45 85.59-12.99Q82.78-14.53 81.27-16.16L81.27-16.16Q79.34-18.26 79.34-21.22L79.34-21.22Q79.34-24.29 81.19-26.42L81.19-26.42Q83.49-29 87.59-29L87.59-29Q92.13-29 95.89-25.49L95.89-25.49 93.99-22.14Q91.3-25.34 87.76-25.34L87.76-25.34Q85.86-25.34 84.66-24.39L84.66-24.39Q83.34-23.36 83.34-21.48L83.34-21.48Q83.34-19.9 84.17-18.73L84.17-18.73Q85.15-17.38 87.3-16.21L87.3-16.21 90.4-14.5Q96.55-11.13 96.55-6.01L96.55-6.01Q96.55-2.95 94.6-0.71L94.6-0.71Q92.2 2.05 87.27 2.05L87.27 2.05Q81.58 2.05 77.95-2.2L77.95-2.2ZM109.44-35.25L113.49-37.3 113.49-28.25 120.3-28.25 120.3-24.85 113.49-24.85 113.49-5.91Q113.49-3.42 113.76-2.78L113.76-2.78Q114.25-1.59 115.69-1.59L115.69-1.59Q117.3-1.59 118.84-3L118.84-3 120.13-0.1Q118.06 1.86 115.1 1.86L115.1 1.86Q111.24 1.86 110-1.15L110-1.15Q109.44-2.51 109.44-5.54L109.44-5.54 109.44-24.85 103.95-24.85 103.95-28.25 109.44-28.25 109.44-35.25ZM146.3-14.31L146.3-13.06 132.19-13.06Q132.26-7.93 133.53-5.1L133.53-5.1Q135.07-1.66 138.1-1.66L138.1-1.66Q139.95-1.66 141.54-3.08L141.54-3.08Q142.96-4.32 143.79-6.47L143.79-6.47 146.4-3.76Q143.57 2.1 137.88 2.1L137.88 2.1Q133.12 2.1 130.43-2.56L130.43-2.56Q128.04-6.71 128.04-13.28L128.04-13.28Q128.04-19.85 130.11-23.97L130.11-23.97Q132.65-29.05 137.46-29.05L137.46-29.05Q142.18-29.05 144.47-24.27L144.47-24.27Q146.3-20.46 146.3-14.31L146.3-14.31ZM132.34-16.46L142.08-16.46Q141.98-20.17 141.1-22.31L141.1-22.31Q139.83-25.51 137.32-25.51L137.32-25.51Q135.29-25.51 133.85-22.9L133.85-22.9Q132.53-20.51 132.34-16.46L132.34-16.46ZM167.32-23.95L167.32-41.5 171.27-41.5 171.27 1.39 167.42 1.39 167.42-2.71Q166.78-0.78 165.49 0.42L165.49 0.42Q163.75 2.05 161.51 2.05L161.51 2.05Q157.58 2.05 155.09-1.9L155.09-1.9Q152.48-6.05 152.48-13.18L152.48-13.18Q152.48-20.04 154.97-24.41L154.97-24.41Q157.55-28.96 161.53-28.96L161.53-28.96Q165.63-28.96 167.32-23.95L167.32-23.95ZM167.32-8.06L167.32-19.09Q165.44-25.37 162.05-25.37L162.05-25.37Q160.07-25.37 158.63-22.73L158.63-22.73Q156.67-19.17 156.67-13.09L156.67-13.09Q156.67-7.89 158.16-4.69L158.16-4.69Q159.63-1.54 161.97-1.54L161.97-1.54Q165.51-1.54 167.32-8.06L167.32-8.06ZM204.42 1.78L200.32-39.26 204.13-39.26 205.81-17.31 205.89-16.48Q206.4-9.28 206.57-5.52L206.57-5.52 206.82-5.52Q207.55-13.31 208.06-17.11L208.06-17.11 210.62-36.01 214.36-36.01 216.92-17.11Q217.36-13.94 218.07-6.47L218.07-6.47 218.17-5.52 218.41-5.52Q218.58-9.86 219.17-17.31L219.17-17.31 220.88-39.26 224.66-39.26 220.56 1.78 216.63 1.78 213.68-18.41Q213.04-22.66 212.58-28.47L212.58-28.47 212.38-28.47Q211.94-22.73 211.33-18.41L211.33-18.41 208.38 1.78 204.42 1.78ZM246.29-14.31L246.29-13.06 232.18-13.06Q232.25-7.93 233.52-5.1L233.52-5.1Q235.06-1.66 238.09-1.66L238.09-1.66Q239.94-1.66 241.53-3.08L241.53-3.08Q242.95-4.32 243.78-6.47L243.78-6.47 246.39-3.76Q243.56 2.1 237.87 2.1L237.87 2.1Q233.11 2.1 230.42-2.56L230.42-2.56Q228.03-6.71 228.03-13.28L228.03-13.28Q228.03-19.85 230.1-23.97L230.1-23.97Q232.64-29.05 237.45-29.05L237.45-29.05Q242.17-29.05 244.46-24.27L244.46-24.27Q246.29-20.46 246.29-14.31L246.29-14.31ZM232.33-16.46L242.07-16.46Q241.97-20.17 241.09-22.31L241.09-22.31Q239.82-25.51 237.31-25.51L237.31-25.51Q235.28-25.51 233.84-22.9L233.84-22.9Q232.52-20.51 232.33-16.46L232.33-16.46ZM265.5-17.5L267.41-17.5 267.41-18.85Q267.41-21.85 266.21-23.68L266.21-23.68Q265.14-25.37 261.89-25.37L261.89-25.37Q258.37-25.37 255.61-22.41L255.61-22.41 253.61-25.15Q255.18-26.9 257.3-27.88L257.3-27.88Q259.67-28.96 262.06-28.96L262.06-28.96Q267.24-28.96 269.51-25.73L269.51-25.73Q270.78-23.93 271.14-21.63L271.14-21.63Q271.36-20.21 271.36-17.99L271.36-17.99 271.36-7.25Q271.36-1.88 272.51 1.25L272.51 1.25 268.92 1.25Q268.24-0.83 267.92-3.59L267.92-3.59 267.72-3.59Q265.8 2.1 260.16 2.1L260.16 2.1Q256.25 2.1 253.98-0.85L253.98-0.85Q252.17-3.2 252.17-6.71L252.17-6.71Q252.17-12.01 255.88-14.77L255.88-14.77Q259.55-17.5 265.5-17.5L265.5-17.5ZM267.36-11.74L267.36-14.31 265.55-14.31Q256.27-14.31 256.27-6.84L256.27-6.84Q256.27-4.86 257.18-3.42L257.18-3.42Q258.35-1.56 260.4-1.56L260.4-1.56Q263.23-1.56 265.21-4.52L265.21-4.52Q267.36-7.71 267.36-11.74L267.36-11.74ZM284.42-35.25L288.47-37.3 288.47-28.25 295.29-28.25 295.29-24.85 288.47-24.85 288.47-5.91Q288.47-3.42 288.74-2.78L288.74-2.78Q289.23-1.59 290.67-1.59L290.67-1.59Q292.28-1.59 293.82-3L293.82-3 295.11-0.1Q293.04 1.86 290.08 1.86L290.08 1.86Q286.23 1.86 284.98-1.15L284.98-1.15Q284.42-2.51 284.42-5.54L284.42-5.54 284.42-24.85 278.93-24.85 278.93-28.25 284.42-28.25 284.42-35.25ZM303.78 1.25L303.78-41.5 307.73-41.5 307.73-23.51Q308.91-26.25 310.98-27.66L310.98-27.66Q312.67-28.81 314.37-28.81L314.37-28.81Q317.21-28.81 319.14-26.32L319.14-26.32Q321.23-23.58 321.23-17.41L321.23-17.41 321.23 1.25 317.28 1.25 317.28-17.21Q317.28-25.05 313.84-25.05L313.84-25.05Q312.23-25.05 310.64-23.29L310.64-23.29Q308.73-21.17 307.73-17.6L307.73-17.6 307.73 1.25 303.78 1.25ZM346.28-14.31L346.28-13.06 332.17-13.06Q332.24-7.93 333.51-5.1L333.51-5.1Q335.05-1.66 338.08-1.66L338.08-1.66Q339.93-1.66 341.52-3.08L341.52-3.08Q342.94-4.32 343.77-6.47L343.77-6.47 346.38-3.76Q343.55 2.1 337.86 2.1L337.86 2.1Q333.1 2.1 330.41-2.56L330.41-2.56Q328.02-6.71 328.02-13.28L328.02-13.28Q328.02-19.85 330.09-23.97L330.09-23.97Q332.63-29.05 337.44-29.05L337.44-29.05Q342.16-29.05 344.45-24.27L344.45-24.27Q346.28-20.46 346.28-14.31L346.28-14.31ZM332.32-16.46L342.06-16.46Q341.96-20.17 341.08-22.31L341.08-22.31Q339.81-25.51 337.3-25.51L337.3-25.51Q335.27-25.51 333.83-22.9L333.83-22.9Q332.51-20.51 332.32-16.46L332.32-16.46ZM360.88-28.25L360.37-20.09 360.61-20.09Q361.93-25.07 365-27.42L365-27.42Q367.03-28.96 369.23-28.96L369.23-28.96Q370.94-28.96 372.38-27.91L372.38-27.91 371.23-23.85Q370.28-24.66 368.98-24.66L368.98-24.66Q366.37-24.66 364.22-21.88L364.22-21.88Q362.32-19.38 361.17-14.89L361.17-14.89 361.17 1.25 357.17 1.25 357.17-28.25 360.88-28.25ZM417.29-23.95L417.29-41.5 421.25-41.5 421.25 1.39 417.39 1.39 417.39-2.71Q416.76-0.78 415.46 0.42L415.46 0.42Q413.73 2.05 411.48 2.05L411.48 2.05Q407.55 2.05 405.06-1.9L405.06-1.9Q402.45-6.05 402.45-13.18L402.45-13.18Q402.45-20.04 404.94-24.41L404.94-24.41Q407.53-28.96 411.51-28.96L411.51-28.96Q415.61-28.96 417.29-23.95L417.29-23.95ZM417.29-8.06L417.29-19.09Q415.41-25.37 412.02-25.37L412.02-25.37Q410.04-25.37 408.6-22.73L408.6-22.73Q406.65-19.17 406.65-13.09L406.65-13.09Q406.65-7.89 408.14-4.69L408.14-4.69Q409.6-1.54 411.95-1.54L411.95-1.54Q415.49-1.54 417.29-8.06L417.29-8.06ZM440.48-17.5L442.39-17.5 442.39-18.85Q442.39-21.85 441.19-23.68L441.19-23.68Q440.12-25.37 436.87-25.37L436.87-25.37Q433.36-25.37 430.6-22.41L430.6-22.41 428.6-25.15Q430.16-26.9 432.28-27.88L432.28-27.88Q434.65-28.96 437.04-28.96L437.04-28.96Q442.22-28.96 444.49-25.73L444.49-25.73Q445.76-23.93 446.12-21.63L446.12-21.63Q446.34-20.21 446.34-17.99L446.34-17.99 446.34-7.25Q446.34-1.88 447.49 1.25L447.49 1.25 443.9 1.25Q443.22-0.83 442.9-3.59L442.9-3.59 442.71-3.59Q440.78 2.1 435.14 2.1L435.14 2.1Q431.23 2.1 428.96-0.85L428.96-0.85Q427.15-3.2 427.15-6.71L427.15-6.71Q427.15-12.01 430.87-14.77L430.87-14.77Q434.53-17.5 440.48-17.5L440.48-17.5ZM442.34-11.74L442.34-14.31 440.53-14.31Q431.26-14.31 431.26-6.84L431.26-6.84Q431.26-4.86 432.16-3.42L432.16-3.42Q433.33-1.56 435.38-1.56L435.38-1.56Q438.21-1.56 440.19-4.52L440.19-4.52Q442.34-7.71 442.34-11.74L442.34-11.74ZM459.4-35.25L463.46-37.3 463.46-28.25 470.27-28.25 470.27-24.85 463.46-24.85 463.46-5.91Q463.46-3.42 463.72-2.78L463.72-2.78Q464.21-1.59 465.65-1.59L465.65-1.59Q467.26-1.59 468.8-3L468.8-3 470.1-0.1Q468.02 1.86 465.07 1.86L465.07 1.86Q461.21 1.86 459.96-1.15L459.96-1.15Q459.4-2.51 459.4-5.54L459.4-5.54 459.4-24.85 453.91-24.85 453.91-28.25 459.4-28.25 459.4-35.25ZM490.48-17.5L492.38-17.5 492.38-18.85Q492.38-21.85 491.19-23.68L491.19-23.68Q490.11-25.37 486.87-25.37L486.87-25.37Q483.35-25.37 480.59-22.41L480.59-22.41 478.59-25.15Q480.15-26.9 482.28-27.88L482.28-27.88Q484.64-28.96 487.04-28.96L487.04-28.96Q492.21-28.96 494.48-25.73L494.48-25.73Q495.75-23.93 496.12-21.63L496.12-21.63Q496.34-20.21 496.34-17.99L496.34-17.99 496.34-7.25Q496.34-1.88 497.49 1.25L497.49 1.25 493.9 1.25Q493.21-0.83 492.9-3.59L492.9-3.59 492.7-3.59Q490.77 2.1 485.13 2.1L485.13 2.1Q481.23 2.1 478.96-0.85L478.96-0.85Q477.15-3.2 477.15-6.71L477.15-6.71Q477.15-12.01 480.86-14.77L480.86-14.77Q484.52-17.5 490.48-17.5L490.48-17.5ZM492.34-11.74L492.34-14.31 490.53-14.31Q481.25-14.31 481.25-6.84L481.25-6.84Q481.25-4.86 482.15-3.42L482.15-3.42Q483.33-1.56 485.38-1.56L485.38-1.56Q488.21-1.56 490.19-4.52L490.19-4.52Q492.34-7.71 492.34-11.74L492.34-11.74Z" opacity="1" transform="matrix(1,0,0,1,0,0)" fill="#65a0dc" class="slogan-text-1" data-fill-palette-color="secondary" id="text-1"></path></svg></g></svg></g></svg></g></svg></g><g transform="matrix(1,0,0,1,253.80755701940853,0.17504940023255955)"><svg viewBox="0 0 69.92470640634956 70.23433677718062" height="70.23433677718062" width="69.92470640634956"><g><svg xmlns="http://www.w3.org/2000/svg" xmlns:xlink="http://www.w3.org/1999/xlink" version="1.1" x="0" y="0" viewBox="1.356 0 612.0070000000001 614.717" style="enable-background:new 0 0 614.719 614.719;" xml:space="preserve" id="icon-0" width="69.92470640634956" height="70.23433677718062" class="icon-icon-0" data-fill-palette-color="accent"><g fill="#65a0dc" data-fill-palette-color="accent"><g fill="#65a0dc" data-fill-palette-color="accent"><path d="M402.643 151.788L453.746 100.679C459.761 94.651 460.056 84.455 453.143 77.53 447.127 71.566 436.136 71.053 429.698 77.53L379.198 128.639C372.76 135.18 372.286 144.863 379.198 151.789 386.11 158.713 395.729 158.713 402.643 151.788" fill="#65a0dc" data-fill-palette-color="accent"></path><path d="M265.879 105.232C275.196 105.232 282.712 97.665 282.712 88.367V16.544C282.712 7.182 275.197 0 265.879 0S249.347 7.182 249.347 16.544V88.366C249.341 97.665 256.555 105.232 265.879 105.232" fill="#65a0dc" data-fill-palette-color="accent"></path><path d="M130.007 151.788C136.965 158.649 146.777 158.906 153.452 151.788 159.711 145.119 159.467 134.666 153.452 128.638L102.35 77.529C96.335 71.565 85.818 71.565 78.905 77.529 71.992 84.775 72.089 94.587 78.905 101.32z" fill="#65a0dc" data-fill-palette-color="accent"></path><path d="M17.888 281.965L90.031 281.067C99.349 280.939 106.563 273.821 106.563 264.522 106.563 255.224 99.349 247.978 90.031 247.978H17.888C8.571 248.876 1.356 255.801 1.356 265.1 1.356 273.821 8.571 282.093 17.888 281.965" fill="#65a0dc" data-fill-palette-color="accent"></path><path d="M594.722 393.738C582.397 371.229 565.865 353.21 544.825 339.679 539.714 301.459 524.292 269.139 498.834 242.27 468.982 210.784 428.493 193.277 385.509 193.277H373.184C361.461 175.835 345.834 161.983 326.891 151.787 307.954 141.591 287.812 136.46 265.868 136.46 230.4 136.46 199.965 149.029 174.789 174.039 149.767 198.92 137.217 229.06 137.217 264.522 137.217 278.053 143.232 298.509 155.25 326.147 138.115 340.255 125.79 358.595 118.877 380.847H111.977C81.62 380.847 55.469 392.262 33.826 415.091 12.183 437.984 1.359 465.622 1.359 497.75 1.359 526.606 10.221 551.744 27.811 573.548 45.696 595.671 68.07 609.074 95.446 613.498 101.743 614.524 106.867 614.717 110.176 614.717H476.6C484.718 614.717 491.329 614.076 496.139 612.922 529.806 608.112 557.951 591.44 580.601 562.967 602.436 535.585 613.363 503.457 613.363 467.098 613.356 440.936 607.046 416.311 594.722 393.738M198.848 197.51C217.412 179.042 239.729 169.807 265.88 169.807 293.833 169.807 317.579 180.067 336.817 200.459 289.626 216.427 251.753 254.582 234.618 303.896 228.308 302.998 223.197 302.678 219.888 302.678 206.96 302.678 194.635 305.115 182.316 310.18 174.8 296.65 171.196 281.644 171.196 264.522 171.19 238.359 180.437 215.722 198.848 197.51M554.443 542.576C537.308 563.93 515.966 576.499 490.118 580.411 487.713 581.308 483.205 581.63 476.594 581.63H110.173C107.768 581.63 103.26 581.053 101.156 581.053 82.219 578.038 66.585 568.741 53.664 552.773 40.736 536.87 34.426 518.53 34.426 497.752 34.426 474.602 41.858 454.723 56.973 438.563 72.223 422.275 90.64 414.195 111.981 414.195 124.909 414.195 136.933 417.21 148.354 423.557 148.053 421.441 147.751 418.427 147.751 414.195 147.751 392.841 154.664 374.501 168.791 359.174S199.751 336.025 219.894 336.025C233.72 336.025 246.346 339.936 258.069 347.76 261.974 313.516 275.877 284.723 300.149 261.509 324.575 238.167 352.753 226.367 385.514 226.367 420.085 226.367 449.84 239.577 474.491 265.741 499.141 291.841 512.062 323.455 512.967 360.713 533.11 369.113 549.038 382.965 561.363 402.203S579.999 443.052 579.999 467.099C579.991 496.276 571.578 521.222 554.443 542.576" fill="#65a0dc" data-fill-palette-color="accent"></path></g></g></svg></g></svg></g></svg></g></svg></g></svg></g><path d="M199.514 90.953L199.514 26.817 393.08 26.817 393.08 220.383 199.514 220.383 199.514 156.247 202.218 156.247 202.218 217.678 390.375 217.678 390.375 29.522 202.218 29.522 202.218 90.953Z" fill="#fe0039" stroke="transparent" data-fill-palette-color="tertiary"></path></svg></g><defs></defs></svg><rect width="395.52" height="247.2" fill="none" stroke="none" visibility="hidden"></rect></g></svg></g></svg>